<svg width="27" height="28" viewBox="0 0 27 28" fill="none" xmlns="http://www.w3.org/2000/svg">
<path id="Vector" d="M14.7828 22.42L13.5003 21.3481L12.2177 22.4199C7.39008 26.4541 4.06036 25.7442 2.90806 24.5919C1.75579 23.4397 1.04584 20.1101 5.0801 15.2825L6.15184 14L5.0801 12.7175C1.04584 7.88995 1.75579 4.56032 2.90806 3.40806C4.06037 2.25577 7.39009 1.54586 12.2177 5.58007L13.5003 6.65187L14.7828 5.57995C19.6092 1.54597 22.939 2.25568 24.0916 3.40814C25.2441 4.56051 25.9544 7.89012 21.9203 12.7175L20.8481 14.0005L21.9207 15.2831C25.954 20.1057 25.2445 23.4357 24.0913 24.5892C22.9383 25.7426 19.6085 26.4535 14.7828 22.42Z" stroke="black" stroke-width="4"/>
</svg>
